<svg width="61" height="60" viewBox="0 0 61 60" fill="none" xmlns="http://www.w3.org/2000/svg">
<path d="M25.6367 46.2018C26.5214 41.0303 30.5529 37.75 36.6626 37.75H52.5394C58.465 37.75 59.7238 33.9268 59.7238 33.9268C58.8391 39.0983 56.4285 42.3786 50.3188 42.3786H34.0323C27.2933 42.3786 25.6367 46.2018 25.6367 46.2018Z" fill="#DF2325"/>
<path d="M52.266 43.3651C50.9181 45.3554 49.3566 45.5305 46.3938 45.5305C43.431 45.5305 39.9516 45.5947 35.1363 45.5305C29.9529 45.4605 25.9511 47.7602 25.6245 52.7624C26.9723 50.772 28.7239 50.4102 31.6867 50.4102C34.6495 50.4102 36.4307 50.346 41.246 50.4102C46.4235 50.486 50.4728 48.2388 52.266 43.3651Z" fill="#EE4523"/>
<path d="M25.6362 56.9125C25.6362 54.9221 28.409 53.8539 31.7221 53.8539C35.0353 53.8539 41.4477 54.2859 44.173 52.3947C43.4308 54.5777 36.6621 59.5799 29.8993 59.5799C26.8356 59.5799 25.6362 58.1265 25.6362 56.9125Z" fill="#FE5F3E"/>
<path d="M13.6089 25.6917C18.8695 26.5614 22.2064 30.5246 22.2064 36.5308V52.1386C22.2064 57.9638 26.0954 59.2012 26.0954 59.2012C20.8348 58.3315 17.4979 55.9617 17.4979 49.9556V33.945C17.4979 27.3144 13.6089 25.6917 13.6089 25.6917Z" fill="#172C4F"/>
<path d="M16.4924 51.8636C14.4678 50.5386 14.2896 49.0035 14.2896 46.0909C14.2896 43.1783 14.2243 39.7579 14.2896 35.0242C14.3609 29.9286 12.0215 25.9946 6.93311 25.6735C8.95778 26.9985 9.32591 28.7204 9.32591 31.633C9.32591 34.5456 9.39122 36.2966 9.32591 41.0303C9.25466 46.1259 11.5346 50.1008 16.4924 51.8636Z" fill="#264A74"/>
<path d="M2.71936 25.6932C4.74404 25.6932 5.8306 28.4191 5.8306 31.676C5.8306 34.9272 5.39123 41.2368 7.31497 43.916C5.08841 43.1863 0 36.5323 0 29.8783C0 26.8664 1.48437 25.6932 2.71936 25.6932Z" fill="#345A87"/>
<path d="M34.4802 13.8655C33.5955 19.037 29.564 22.3173 23.4543 22.3173H7.57155C1.64595 22.3173 0.387207 26.1405 0.387207 26.1405C1.27189 20.969 3.68251 17.6887 9.79217 17.6887H26.0787C32.8236 17.6887 34.4802 13.8655 34.4802 13.8655Z" fill="#DF2325"/>
<path d="M7.8501 16.7022C9.1979 14.7119 10.7595 14.5368 13.7223 14.5368C16.6851 14.5368 20.1644 14.4725 24.9797 14.5368C30.1631 14.6068 34.165 12.3071 34.4915 7.30487C33.1437 9.29524 31.3922 9.65713 28.4294 9.65713C25.4666 9.65713 23.6853 9.72133 18.87 9.65713C13.6926 9.58125 9.64321 11.8284 7.8501 16.7022Z" fill="#EE4523"/>
<path d="M34.4811 3.15487C34.4811 5.14525 31.7083 6.2134 28.3952 6.2134C25.0821 6.2134 18.6696 5.78147 15.9443 7.67262C16.6865 5.48962 23.4552 0.487427 30.218 0.487427C33.2818 0.487427 34.4811 1.9408 34.4811 3.15487Z" fill="#FE5F3E"/>
<path d="M46.508 34.3758C41.2474 33.5061 37.9105 29.5429 37.9105 23.5367V7.92895C37.9105 2.10375 34.0215 0.866333 34.0215 0.866333C39.2821 1.73603 42.6189 4.1058 42.6189 10.1119V26.1225C42.6189 32.7532 46.508 34.3758 46.508 34.3758Z" fill="#172C4F"/>
<path d="M43.6226 8.20386C45.6472 9.52883 45.8254 11.0639 45.8254 13.9765C45.8254 16.8891 45.8907 20.3095 45.8254 25.0432C45.7541 30.1388 48.0935 34.0729 53.1819 34.3939C51.1572 33.0689 50.7891 31.347 50.7891 28.4344C50.7891 25.5218 50.7238 23.7708 50.7891 19.0371C50.8603 13.9415 48.5803 9.96659 43.6226 8.20386Z" fill="#264A74"/>
<path d="M57.3969 34.3763C55.3722 34.3763 54.2856 31.6505 54.2856 28.3935C54.2856 25.1424 54.725 18.8328 52.8013 16.1536C55.0219 16.8832 60.1103 23.5373 60.1103 30.1855C60.1162 33.2031 58.6319 34.3763 57.3969 34.3763Z" fill="#345A87"/>
</svg>
